<?xml version="1.0" encoding="UTF-8"?>
<svg xmlns="http://www.w3.org/2000/svg" width="76" height="74" viewBox="0 0 76 74" fill="none">
  <path d="M70.7846 20.8042L67.9987 23.5901L67.6455 30.7707C67.5278 33.0073 66.5861 35.1262 65.0166 36.6957L59.7979 41.9144" stroke="#3959E5" stroke-width="1.5" stroke-miterlimit="10"></path>
  <path d="M17.773 43.5235L11.3772 36.7353C9.80764 35.1658 8.86592 33.0469 8.7482 30.8103L8.39505 23.6297L5.60913 20.8438" stroke="#3959E5" stroke-width="1.5" stroke-miterlimit="10"></path>
  <path d="M48.6537 30.8101L61.5239 43.6802C63.0542 45.2105 62.9365 47.8003 61.2885 49.4483C60.4252 50.3115 59.2873 50.7431 58.1886 50.7431C57.2077 50.7431 56.2267 50.39 55.5204 49.6445L47.4766 41.6006" stroke="#3959E5" stroke-width="1.5" stroke-miterlimit="10"></path>
  <path d="M44.8083 38.9717L57.6784 51.8419C59.2087 53.3722 59.091 55.9619 57.443 57.6099C56.5798 58.4731 55.4419 58.9048 54.3432 58.9048C53.3622 58.9048 52.3813 58.5516 51.675 57.8061L43.6311 49.7622" stroke="#3959E5" stroke-width="1.5" stroke-miterlimit="10"></path>
  <path d="M37.8633 44.0332L50.7335 56.9034C52.2638 58.4337 52.146 61.0234 50.498 62.6714C49.6348 63.5347 48.4969 63.9663 47.3982 63.9663C46.4172 63.9663 45.4363 63.6131 44.73 62.8676L43.082 61.2196" stroke="#3959E5" stroke-width="1.5" stroke-miterlimit="10"></path>
  <path d="M19.5784 6.83545L22.639 9.89604L29.8588 9.3467C32.4878 9.15051 35.0383 10.0922 36.9217 11.9757L40.2177 15.2717" stroke="#3959E5" stroke-width="1.5" stroke-miterlimit="10"></path>
  <path d="M54.9716 10.8379L52.3819 13.4276L46.2607 12.996C44.0241 12.839 41.866 13.6238 40.2965 15.2326L25.739 29.79C25.1897 30.3394 24.915 31.0456 24.915 31.7912C24.915 32.5367 25.1897 33.243 25.739 33.7923C26.9554 35.0087 28.5642 35.6758 30.2907 35.6758C32.0172 35.6758 33.626 35.0087 34.8423 33.7923L38.2168 30.4178C40.9243 32.0658 46.0645 33.6354 49.9884 29.7115L54.3438 25.3561" stroke="#3959E5" stroke-width="1.5" stroke-miterlimit="10"></path>
  <path d="M20.2063 50.2331C19.1861 50.2331 18.2443 49.8407 17.538 49.1345C16.047 47.6434 16.0862 45.2106 17.6165 43.6411L17.7735 43.4841L21.2265 40.0312C21.972 39.2856 22.9922 38.854 24.0516 38.854C25.1111 38.854 26.0135 39.2464 26.7198 39.9527C28.2109 41.4437 28.1716 43.9158 26.6413 45.446L23.0314 49.056C22.2859 49.8015 21.2657 50.1939 20.2455 50.1939L20.2063 50.2331Z" stroke="#3959E5" stroke-width="1.5" stroke-miterlimit="10"></path>
  <path d="M25.5815 55.6477C24.5613 55.6477 23.6196 55.2553 22.9133 54.549C21.4222 53.0579 21.4615 50.6252 22.9918 49.0556L23.1487 48.8987L26.6017 45.4457C27.3472 44.7002 28.3674 44.2686 29.4269 44.2686C30.4863 44.2686 31.3888 44.6609 32.0951 45.3672C33.5861 46.8583 33.5469 49.3303 32.0166 50.8606L28.4067 54.4705C27.6611 55.2161 26.6409 55.6084 25.6207 55.6084L25.5815 55.6477Z" stroke="#3959E5" stroke-width="1.5" stroke-miterlimit="10"></path>
  <path d="M30.9968 61.0237C29.9766 61.0237 29.0349 60.6313 28.3286 59.925C26.8375 58.4339 26.8768 56.0011 28.4071 54.4316L28.564 54.2747L32.017 50.8217C32.7625 50.0762 33.7827 49.6445 34.8421 49.6445C35.9016 49.6445 36.8041 50.0369 37.5104 50.7432C39.0014 52.2343 38.9622 54.7063 37.4319 56.2366L33.8219 59.8465C33.0764 60.592 32.0562 60.9844 31.036 60.9844L30.9968 61.0237Z" stroke="#3959E5" stroke-width="1.5" stroke-miterlimit="10"></path>
  <path d="M36.372 66.4382C35.3518 66.4382 34.4101 66.0458 33.7038 65.3395C32.2128 63.8485 32.252 61.4157 33.7823 59.8462L33.9392 59.6892L37.3922 56.2362C38.1378 55.4907 39.158 55.0591 40.2174 55.0591C41.2768 55.0591 42.1793 55.4515 42.8856 56.1578C44.3767 57.6488 44.3374 60.1208 42.8071 61.6511L39.1972 65.2611C38.4517 66.0066 37.4315 66.399 36.4113 66.399L36.372 66.4382Z" stroke="#3959E5" stroke-width="1.5" stroke-miterlimit="10"></path>
</svg>
