<?xml version="1.0" encoding="UTF-8"?>
<svg xmlns="http://www.w3.org/2000/svg" width="76" height="74" viewBox="0 0 76 74" fill="none">
  <path d="M52.3196 50.0987L12.5693 40.3639C9.29961 39.5632 7 36.6324 7 33.2662C7 29.9313 9.2578 27.0194 12.4876 26.1889L52.2379 15.9674C54.1438 15.4773 56 16.9166 56 18.8845V47.2108C56 49.1392 54.1926 50.5574 52.3196 50.0987Z" stroke="#3D58E5" stroke-width="1.5"></path>
  <rect x="8.75" y="44.75" width="7.5" height="14.5" rx="3.75" stroke="#3D58E5" stroke-width="1.5"></rect>
  <path d="M59.5706 25.8865L67.6383 20.9151" stroke="#3D58E5" stroke-width="1.5" stroke-linecap="round"></path>
  <path d="M59.5706 25.8865L67.6383 20.9151" stroke="#3D58E5" stroke-width="1.5" stroke-linecap="round"></path>
  <path d="M59.5706 25.8865L67.6383 20.9151" stroke="#3D58E5" stroke-width="1.5" stroke-linecap="round"></path>
  <path d="M59 33H69" stroke="#3D58E5" stroke-width="1.5" stroke-linecap="round"></path>
  <path d="M59 33H69" stroke="#3D58E5" stroke-width="1.5" stroke-linecap="round"></path>
  <path d="M59 33H69" stroke="#3D58E5" stroke-width="1.5" stroke-linecap="round"></path>
  <path d="M59.3337 40.48L67.4016 45.4511" stroke="#3D58E5" stroke-width="1.5" stroke-linecap="round"></path>
  <path d="M59.3337 40.48L67.4016 45.4511" stroke="#3D58E5" stroke-width="1.5" stroke-linecap="round"></path>
  <path d="M59.3337 40.48L67.4016 45.4511" stroke="#3D58E5" stroke-width="1.5" stroke-linecap="round"></path>
</svg>
