<?xml version="1.0" encoding="UTF-8"?>
<svg xmlns="http://www.w3.org/2000/svg" width="82" height="87" viewBox="0 0 82 87" fill="none">
  <g clip-path="url(#clip0_892_2501)">
    <path d="M70.2937 58.0919L55.374 53.492C55.334 53.3454 55.2407 53.1987 55.1074 53.1054L51.8141 50.9321V49.2255L54.2274 47.1589C57.6006 44.2523 59.5339 40.039 59.5339 35.5858V34.2792H60.4539C63.7205 34.2792 66.3737 31.6259 66.3737 28.3593V25.5727C66.3737 24.5061 65.9471 23.4794 65.1738 22.6795C64.5605 22.0795 63.7871 21.6928 62.9605 21.5595C62.9072 11.733 61.5072 6.41318 58.7073 5.35987C57.094 4.74655 55.574 5.74653 54.814 6.41318C54.5474 6.11985 54.294 5.81319 54.014 5.5332C50.4541 1.97329 45.7076 0 40.681 0C35.0545 0 30.0013 2.49327 26.548 6.41318C25.7747 5.74653 24.2681 4.74655 22.6548 5.35987C19.8415 6.42651 18.4549 11.733 18.4016 21.5595C17.5749 21.6928 16.7883 22.0795 16.1616 22.6928C15.3883 23.4794 14.975 24.4927 14.975 25.5727V28.3593C14.975 31.6259 17.6283 34.2792 20.8948 34.2792H21.8148V35.5858C21.8148 40.039 23.7481 44.2523 27.1347 47.1589L29.5346 49.2121V50.7588L25.9747 53.1054C25.8147 53.212 25.7214 53.3854 25.6947 53.572L11.0551 58.0919C4.45525 60.1719 0.0286865 66.2251 0.0286865 73.1316V85.9979C0.0286865 86.3712 0.322013 86.6646 0.695337 86.6646H80.6934C81.0667 86.6646 81.3601 86.3712 81.3601 85.9979V73.1316C81.3601 66.2251 76.9202 60.1852 70.3203 58.0919H70.2937ZM53.854 53.8787L48.4542 63.5051C48.3475 63.7051 48.1475 63.8251 47.9209 63.8518C47.6809 63.8518 47.4942 63.7851 47.3475 63.6118L46.2142 62.1985L44.9743 60.6652C44.9743 60.6652 44.9743 60.6519 44.9743 60.6385L44.0543 59.5052C43.841 59.2386 43.8676 58.8386 44.121 58.6119L51.1075 52.0787L53.854 53.892V53.8787ZM43.0143 60.3319L43.0543 60.3719H38.0278L38.0678 60.3319C38.1478 60.2252 38.1878 60.1052 38.2544 59.9985C38.3078 59.8919 38.3878 59.7852 38.4278 59.6786C38.4678 59.5452 38.4678 59.4119 38.4678 59.2786C38.4678 59.1719 38.5078 59.0652 38.5078 58.9586C38.5078 58.8119 38.4411 58.6652 38.3878 58.5186C38.3611 58.4253 38.3611 58.3319 38.3211 58.2519C38.2144 58.0253 38.0678 57.8253 37.8678 57.6386L30.8546 51.0788V50.3721L31.8013 51.1854C32.9746 52.1987 34.2812 52.9854 35.6678 53.5187C36.0678 53.6787 36.4678 53.812 36.8811 53.932C38.1078 54.292 39.4011 54.4787 40.681 54.4787C42.3877 54.4787 44.0676 54.1587 45.6809 53.532C47.0809 52.9854 48.3875 52.1987 49.5608 51.1988L50.4941 50.3988V50.8388L43.2143 57.6386C42.4543 58.3453 42.361 59.5319 43.0143 60.3452V60.3319ZM44.0943 61.7052L44.8676 62.6651L42.4143 67.1184H38.2278L35.9345 62.9585L36.9478 61.7052H44.081H44.0943ZM64.2405 23.6261C64.7605 24.1594 65.0538 24.8527 65.0538 25.5727V28.3593C65.0538 30.8926 63.0005 32.9459 60.4672 32.9459H59.5472V30.3326L59.5872 25.2261C59.7606 23.8794 60.9072 22.8261 62.2938 22.8261C63.0272 22.8261 63.7205 23.1194 64.2405 23.6261ZM58.2406 6.59984C59.4939 7.0665 61.5605 9.66643 61.6405 21.5595C60.8405 21.6928 60.1206 22.0528 59.5472 22.5728V18.8795C59.5472 14.693 58.1739 10.7197 55.6673 7.43982C56.214 6.97316 57.2673 6.23985 58.2406 6.59984ZM21.8015 32.9459H20.8815C18.3482 32.9459 16.295 30.8926 16.295 28.3593V25.5727C16.295 24.8527 16.5883 24.1594 17.0949 23.6394C17.6283 23.1194 18.3216 22.8261 19.0549 22.8261C20.4549 22.8261 21.5882 23.8794 21.7615 25.2261L21.8015 30.3326V32.9459ZM21.8015 22.5728C21.2282 22.0528 20.5215 21.6928 19.7215 21.5595C19.7882 9.67977 21.8682 7.07983 23.1081 6.59984C24.0948 6.22652 25.1347 6.95983 25.6814 7.43982C23.2415 10.6131 21.7882 14.573 21.7882 18.8795V22.5728H21.8015ZM27.988 46.1455C24.9081 43.4923 23.1348 39.6524 23.1348 35.5858V18.8795C23.1348 9.19978 31.0013 1.3333 40.681 1.3333C45.3609 1.3333 49.7608 3.15992 53.0674 6.46651C56.3873 9.79976 58.2006 14.1997 58.2006 18.8795V35.5858C58.2006 39.6524 56.4273 43.5056 53.3607 46.1455L50.7475 48.3855C50.7475 48.3855 50.7341 48.3855 50.7208 48.3855L48.6808 50.1455C47.6275 51.0521 46.4542 51.7587 45.1876 52.2387C43.7343 52.8121 42.1877 53.092 40.6544 53.092C39.1211 53.092 37.5878 52.8121 36.1478 52.2387C34.8945 51.7587 33.7212 51.0521 32.6679 50.1455L31.5479 49.1855L30.6146 48.3855L27.988 46.1322V46.1455ZM29.9746 52.0521L36.9611 58.5852C37.2145 58.8119 37.2411 59.2119 37.0278 59.4786L36.1878 60.5319C36.1878 60.5319 36.1078 60.5719 36.0811 60.6119L34.5878 62.4652C34.5878 62.4652 34.5612 62.5318 34.5479 62.5585L33.7345 63.5718C33.5879 63.7451 33.3612 63.8385 33.1479 63.8251C32.9346 63.7985 32.7479 63.6785 32.6279 63.4785L27.2147 53.852L29.9613 52.0387L29.9746 52.0521ZM33.3479 85.3313H17.7616V78.5981C17.7616 78.2248 17.4683 77.9314 17.0949 77.9314C16.7216 77.9314 16.4283 78.2248 16.4283 78.5981V85.3313H1.33532V73.1316C1.33532 66.8117 5.38856 61.2785 11.4284 59.3719L26.2014 54.812L31.4546 64.1451C31.7746 64.7184 32.3479 65.1051 33.0146 65.1718C33.0812 65.1718 33.1346 65.1718 33.2012 65.1718C33.2679 65.1718 33.3212 65.1584 33.3879 65.1451C33.4412 65.1451 33.5079 65.1451 33.5612 65.1318C33.6679 65.1184 33.7612 65.0784 33.8679 65.0518C33.9212 65.0384 33.9612 65.0251 34.0145 64.9984C34.1212 64.9451 34.2145 64.8918 34.3212 64.8251C34.3612 64.7984 34.3879 64.7851 34.4279 64.7584C34.5479 64.6651 34.6678 64.5584 34.7745 64.4251L35.0278 64.1184L37.1611 67.985L33.3479 85.3179V85.3313ZM34.7078 85.3313L38.4144 68.4517H42.361L46.0676 85.3313H34.7078ZM80.0134 85.3313H64.9338V78.5981C64.9338 78.2248 64.6405 77.9314 64.2671 77.9314C63.8938 77.9314 63.6005 78.2248 63.6005 78.5981V85.3313H47.4275L43.5876 67.8384L45.8142 63.7985L46.3209 64.4251C46.4142 64.5451 46.5342 64.6518 46.6542 64.7584C46.6942 64.7984 46.7476 64.8118 46.7876 64.8518C46.8676 64.9051 46.9475 64.9584 47.0409 64.9984C47.1075 65.0251 47.1742 65.0384 47.2409 65.0651C47.3209 65.0918 47.4009 65.1184 47.4809 65.1318C47.5475 65.1451 47.6275 65.1451 47.6942 65.1584C47.7475 65.1584 47.8142 65.1718 47.8675 65.1718C47.9209 65.1718 47.9742 65.1718 48.0275 65.1718C48.6942 65.1184 49.2808 64.7451 49.6142 64.1584L54.894 54.7453L69.8937 59.3719C75.9335 61.2785 80.0001 66.8117 80.0001 73.1316V85.3313H80.0134Z" fill="#3959E5"></path>
    <path d="M38.7744 26.2264C39.8277 25.3197 41.4943 25.3197 42.5476 26.2264C42.7343 29.733 45.6142 32.5329 49.1742 32.5329C52.7341 32.5329 55.8273 29.5463 55.8273 25.8797C55.8273 22.2132 52.8407 19.2266 49.1742 19.2266C45.9076 19.2266 43.201 21.5998 42.641 24.7064C41.4143 24.0798 39.921 24.0798 38.6944 24.7064C38.1344 21.5998 35.4278 19.2266 32.1612 19.2266C28.4947 19.2266 25.5081 22.2132 25.5081 25.8797C25.5081 29.5463 28.4947 32.5329 32.1612 32.5329C35.8278 32.5329 38.6011 29.733 38.7877 26.2264H38.7744ZM49.1742 20.5599C52.1074 20.5599 54.494 22.9465 54.494 25.8797C54.494 28.813 52.1074 31.1996 49.1742 31.1996C46.2409 31.1996 43.8543 28.813 43.8543 25.8797C43.8543 22.9465 46.2409 20.5599 49.1742 20.5599ZM26.828 25.8797C26.828 22.9465 29.2146 20.5599 32.1479 20.5599C35.0812 20.5599 37.4678 22.9465 37.4678 25.8797C37.4678 28.813 35.0812 31.1996 32.1479 31.1996C29.2146 31.1996 26.828 28.813 26.828 25.8797Z" fill="#3959E5"></path>
    <path d="M35.0412 11.1595H45.7076C46.0809 11.1595 46.3742 10.8661 46.3742 10.4928C46.3742 10.1195 46.0809 9.82617 45.7076 9.82617H35.0412C34.6678 9.82617 34.3745 10.1195 34.3745 10.4928C34.3745 10.8661 34.6678 11.1595 35.0412 11.1595Z" fill="#3959E5"></path>
    <path d="M35.0412 13.9993H45.7076C46.0809 13.9993 46.3742 13.706 46.3742 13.3327C46.3742 12.9593 46.0809 12.666 45.7076 12.666H35.0412C34.6678 12.666 34.3745 12.9593 34.3745 13.3327C34.3745 13.706 34.6678 13.9993 35.0412 13.9993Z" fill="#3959E5"></path>
  </g>
  <defs>
    <clipPath id="clip0_892_2501">
      <rect width="81.3354" height="86.6646" fill="white"></rect>
    </clipPath>
  </defs>
</svg>
