<?xml version="1.0" encoding="UTF-8"?>
<svg id="Layer_10" data-name="Layer 10" xmlns="http://www.w3.org/2000/svg" viewBox="0 0 1280 558.08">
  <defs>
    <style>
      .cls-1 {
        fill: #fff;
      }

      .cls-2 {
        fill: transparent;
      }
    </style>
  </defs>
  <rect class="cls-2" width="1280" height="558.08"/>
  <path class="cls-1" d="m76.01,71.04v416.01h1127.99V71.04H76.01Zm1122.06,413.74H81.93V73.31h1116.13v411.47Z"/>
  <g>
    <g>
      <path class="cls-1" d="m324.94,158.77h-17.3l-55.39,122.31h18l8.46-19.22,4.98-11.36,6.13-13.97h-.02l6.41-14.56,19.97-45.38,19.56,44.44,6.83,15.5h-.02l11.3,25.71,8.29,18.85h18.34l-55.56-122.31Z"/>
      <path class="cls-1" d="m425.07,191.6c0-10.65,8.9-19.39,29.7-19.39,10.83,0,22.89,3.14,33.55,9.97l5.77-13.99c-10.14-6.98-25-10.83-39.33-10.83-32.14,0-46.83,16.08-46.83,34.96,0,45.42,74.1,26.56,74.1,56.44,0,10.64-9.1,18.86-30.24,18.86-15.72,0-31.28-5.94-40.36-14.16l-6.47,13.64c9.78,9.08,28.14,15.38,46.83,15.38,32.33,0,47.36-16.08,47.36-34.77,0-44.91-74.08-26.22-74.08-56.1Z"/>
      <path class="cls-1" d="m522.73,158.77v15.2h41.94v107.11h17.3v-107.11h41.94v-15.2h-101.19Z"/>
      <path class="cls-1" d="m732.27,240.01c17.12-6.11,26.89-19.75,26.89-38.61,0-26.57-19.22-42.64-51.02-42.64h-47.7v122.31h17.47v-37.22h30.22c2.63,0,5.25-.17,7.69-.34l26.39,37.56h19.05l-29-41.06Zm-24.66-11h-29.7v-55.05h29.7c22.38,0,34.08,9.97,34.08,27.44s-11.7,27.61-34.08,27.61Z"/>
      <path class="cls-1" d="m859.13,158.77h-17.3l-55.39,122.31h18l9.82-22.31,3.63-8.28,6.13-13.97h-.02l6.58-14.95,2.09-4.76,17.72-40.23,17.89,40.64,8.5,19.3h-.02l6.13,13.97,3.65,8.28,9.82,22.31h18.34l-55.56-122.31Z"/>
      <path class="cls-1" d="m926.59,158.77v15.2h41.92v107.11h17.3v-107.11h41.94v-15.2h-101.17Z"/>
    </g>
    <g>
      <path class="cls-1" d="m288.03,334.43v65.73h6.96v-65.73h-6.96Z"/>
      <path class="cls-1" d="m439.61,334.43v53.34l-42.35-53.34h-5.72v65.73h6.94v-53.34l42.26,53.34h5.72v-65.73h-6.85Z"/>
      <path class="cls-1" d="m589.86,334.43l-25.35,57.1-25.16-57.1h-7.52l29.11,65.73h6.86l29.1-65.73h-7.03Z"/>
      <path class="cls-1" d="m681.51,334.43v6.02h45.08v-6.02h-45.08Zm0,29.4v5.92h6.96v-.02h33.99v-5.91h-40.94Zm0,30.34v6h46.49v-6h-46.49Z"/>
      <path class="cls-1" d="m821.62,351.71c0-6.58,5.36-11.92,17.38-11.92,5.81,0,12.39,1.79,18.02,5.44l2.35-5.53c-5.25-3.67-12.96-5.83-20.37-5.83-16.72,0-24.22,8.37-24.22,18.04,0,24.32,40.46,13.24,40.46,31.26,0,6.49-5.34,11.64-17.64,11.64-8.63,0-17-3.37-21.68-7.97l-2.73,5.36c4.87,5.06,14.56,8.54,24.41,8.54,16.81,0,24.51-8.26,24.51-17.94,0-23.94-40.47-13.05-40.47-31.07Z"/>
      <path class="cls-1" d="m941.07,334.43v6.02h23.1v59.71h6.96v-59.71h23.1v-6.02h-53.15Z"/>
    </g>
  </g>
</svg>