<?xml version="1.0" encoding="UTF-8"?>
<svg id="Layer_10" data-name="Layer 10" xmlns="http://www.w3.org/2000/svg" viewBox="0 0 1000 1000">
  <defs>
    <style>
      .cls-1 {
        fill: #fff;
      }

      .cls-2 {
        fill: #000121;
      }
    </style>
  </defs>
  <rect class="cls-2" x="-26.05" y="-26.05" width="1052.11" height="1052.11"/>
  <g>
    <path class="cls-1 outer-rect" d="m59.38,78.95v640.52h4.63V83.59h871.98v840.61H64.01v-65.45h-4.63v70.08h881.24V78.95H59.38Z"/>
    <rect class="cls-1" x="59.38" y="719.47" width="4.63" height="139.28"/>
  </g>
  <g>
    <path class="cls-1" d="m246.76,418.9h-13.52l-43.27,95.55h14.06l6.61-15.02,3.89-8.87,4.79-10.92h-.01l5.01-11.37,15.6-35.46,15.28,34.72,5.33,12.11h-.01l8.83,20.09,6.48,14.72h14.33l-43.4-95.55Z"/>
    <path class="cls-1" d="m324.99,444.55c0-8.32,6.95-15.15,23.2-15.15,8.46,0,17.88,2.45,26.21,7.79l4.51-10.93c-7.92-5.45-19.53-8.46-30.72-8.46-25.11,0-36.59,12.56-36.59,27.31,0,35.48,57.89,20.75,57.89,44.1,0,8.32-7.11,14.74-23.63,14.74-12.28,0-24.44-4.64-31.53-11.06l-5.05,10.65c7.64,7.1,21.98,12.02,36.59,12.02,25.26,0,37-12.56,37-27.17,0-35.09-57.88-20.48-57.88-43.83Z"/>
    <path class="cls-1" d="m401.29,418.9v11.87h32.77v83.68h13.52v-83.68h32.77v-11.87h-79.05Z"/>
    <path class="cls-1" d="m564.99,482.37c13.37-4.78,21.01-15.43,21.01-30.17,0-20.76-15.02-33.31-39.86-33.31h-37.26v95.55h13.65v-29.08h23.61c2.06,0,4.1-.13,6.01-.26l20.61,29.34h14.88l-22.66-32.08Zm-19.26-8.6h-23.2v-43.01h23.2c17.49,0,26.62,7.79,26.62,21.44s-9.14,21.57-26.62,21.57Z"/>
    <path class="cls-1" d="m664.1,418.9h-13.52l-43.27,95.55h14.06l7.67-17.43,2.84-6.46,4.79-10.92h-.01l5.14-11.68,1.63-3.72,13.84-31.43,13.97,31.75,6.64,15.08h-.01l4.79,10.92,2.85,6.46,7.67,17.43h14.33l-43.4-95.55Z"/>
    <path class="cls-1" d="m716.8,418.9v11.87h32.75v83.68h13.52v-83.68h32.77v-11.87h-79.04Z"/>
  </g>
  <g>
    <path class="cls-1" d="m217.93,556.13v51.35h5.44v-51.35h-5.44Z"/>
    <path class="cls-1" d="m336.34,556.13v41.67l-33.09-41.67h-4.47v51.35h5.42v-41.67l33.02,41.67h4.47v-51.35h-5.35Z"/>
    <path class="cls-1" d="m453.73,556.13l-19.81,44.61-19.66-44.61h-5.88l22.75,51.35h5.36l22.73-51.35h-5.5Z"/>
    <path class="cls-1" d="m525.33,556.13v4.7h35.22v-4.7h-35.22Zm0,22.97v4.63h5.44s26.55-.01,26.55-.01v-4.61h-31.99Zm0,23.7v4.69h36.32v-4.69h-36.32Z"/>
    <path class="cls-1" d="m634.8,569.64c0-5.14,4.19-9.32,13.58-9.32,4.54,0,9.68,1.4,14.08,4.25l1.84-4.32c-4.1-2.87-10.12-4.56-15.91-4.56-13.06,0-18.92,6.54-18.92,14.09,0,19,31.61,10.34,31.61,24.42,0,5.07-4.17,9.1-13.78,9.1-6.74,0-13.28-2.63-16.94-6.23l-2.13,4.19c3.81,3.95,11.37,6.67,19.07,6.67,13.14,0,19.15-6.45,19.15-14.02,0-18.7-31.62-10.2-31.62-24.27Z"/>
    <path class="cls-1" d="m728.12,556.13v4.7h18.04v46.65h5.44v-46.65h18.04v-4.7h-41.52Z"/>
  </g>
</svg>