<?xml version="1.0" encoding="UTF-8" standalone="no" ?>
<!DOCTYPE svg PUBLIC "-//W3C//DTD SVG 1.1//EN" "http://www.w3.org/Graphics/SVG/1.1/DTD/svg11.dtd">
<svg xmlns="http://www.w3.org/2000/svg" xmlns:xlink="http://www.w3.org/1999/xlink" version="1.1" width="1080" height="1080" viewBox="0 0 1080 1080" xml:space="preserve">
<desc>Created with Fabric.js 5.2.4</desc>
<defs>
</defs>
<g transform="matrix(1 0 0 1 540 540)" id="ffb5ddf7-5675-46a2-ad2a-e34b6d22fc05"  >
</g>
<g transform="matrix(1 0 0 1 540 540)" id="a8e2088e-f495-486f-af45-f3ae9ed5e78f"  >
<rect style="stroke: none; stroke-width: 1; stroke-dasharray: none; stroke-linecap: butt; stroke-dashoffset: 0; stroke-linejoin: miter; stroke-miterlimit: 4; fill: rgb(255,255,255); fill-rule: nonzero; opacity: 1; visibility: hidden;" vector-effect="non-scaling-stroke"  x="-540" y="-540" rx="0" ry="0" width="1080" height="1080" />
</g>
<g transform="matrix(1 0 0 1 92.52 476.5)"  >
<path style="stroke: none; stroke-width: 1; stroke-dasharray: none; stroke-linecap: butt; stroke-dashoffset: 0; stroke-linejoin: miter; stroke-miterlimit: 4; fill: rgb(255,255,255); fill-rule: nonzero; opacity: 1;" vector-effect="non-scaling-stroke"  transform=" translate(-240.06, -466.67)" d="M 246.76 418.9 L 233.23999999999998 418.9 L 189.96999999999997 514.4499999999999 L 204.02999999999997 514.4499999999999 L 210.64 499.42999999999995 L 214.52999999999997 490.55999999999995 L 219.31999999999996 479.63999999999993 L 219.30999999999997 479.63999999999993 L 224.31999999999996 468.2699999999999 L 239.91999999999996 432.80999999999995 L 255.19999999999996 467.53 L 260.53 479.64 L 260.52 479.64 L 269.34999999999997 499.72999999999996 L 275.83 514.4499999999999 L 290.15999999999997 514.4499999999999 L 246.75999999999996 418.8999999999999 Z" stroke-linecap="round" />
</g>
<g transform="matrix(1 0 0 1 202.84 476.5)"  >
<path style="stroke: none; stroke-width: 1; stroke-dasharray: none; stroke-linecap: butt; stroke-dashoffset: 0; stroke-linejoin: miter; stroke-miterlimit: 4; fill: rgb(255,255,255); fill-rule: nonzero; opacity: 1;" vector-effect="non-scaling-stroke"  transform=" translate(-346.07, -466.68)" d="M 324.99 444.55 C 324.99 436.23 331.94 429.40000000000003 348.19 429.40000000000003 C 356.65 429.40000000000003 366.07 431.85 374.4 437.19000000000005 L 378.90999999999997 426.26000000000005 C 370.98999999999995 420.81000000000006 359.38 417.80000000000007 348.18999999999994 417.80000000000007 C 323.0799999999999 417.80000000000007 311.5999999999999 430.36000000000007 311.5999999999999 445.11000000000007 C 311.5999999999999 480.5900000000001 369.4899999999999 465.86000000000007 369.4899999999999 489.2100000000001 C 369.4899999999999 497.5300000000001 362.3799999999999 503.9500000000001 345.8599999999999 503.9500000000001 C 333.5799999999999 503.9500000000001 321.4199999999999 499.3100000000001 314.3299999999999 492.8900000000001 L 309.2799999999999 503.5400000000001 C 316.9199999999999 510.6400000000001 331.25999999999993 515.5600000000001 345.8699999999999 515.5600000000001 C 371.1299999999999 515.5600000000001 382.8699999999999 503.00000000000006 382.8699999999999 488.39000000000004 C 382.8699999999999 453.30000000000007 324.9899999999999 467.91 324.9899999999999 444.56000000000006 Z" stroke-linecap="round" />
</g>
<g transform="matrix(1 0 0 1 299.74 476.5)"  >
<path style="stroke: none; stroke-width: 1; stroke-dasharray: none; stroke-linecap: butt; stroke-dashoffset: 0; stroke-linejoin: miter; stroke-miterlimit: 4; fill: rgb(255,255,255); fill-rule: nonzero; opacity: 1;" vector-effect="non-scaling-stroke"  transform=" translate(-440.82, -466.68)" d="M 401.29 418.9 L 401.29 430.77 L 434.06 430.77 L 434.06 514.45 L 447.58 514.45 L 447.58 430.77000000000004 L 480.34999999999997 430.77000000000004 L 480.34999999999997 418.90000000000003 L 401.29999999999995 418.90000000000003 Z" stroke-linecap="round" />
</g>
<g transform="matrix(1 0 0 1 402.87 476.48)"  >
<path style="stroke: none; stroke-width: 1; stroke-dasharray: none; stroke-linecap: butt; stroke-dashoffset: 0; stroke-linejoin: miter; stroke-miterlimit: 4; fill: rgb(255,255,255); fill-rule: nonzero; opacity: 1;" vector-effect="non-scaling-stroke"  transform=" translate(-548.26, -466.66)" d="M 564.99 482.37 C 578.36 477.59000000000003 586 466.94 586 452.2 C 586 431.44 570.98 418.89 546.14 418.89 L 508.88 418.89 L 508.88 514.4399999999999 L 522.53 514.4399999999999 L 522.53 485.35999999999996 L 546.14 485.35999999999996 C 548.1999999999999 485.35999999999996 550.24 485.22999999999996 552.15 485.09999999999997 L 572.76 514.4399999999999 L 587.64 514.4399999999999 L 564.98 482.35999999999996 Z M 545.73 473.77 L 522.53 473.77 L 522.53 430.76 L 545.73 430.76 C 563.22 430.76 572.35 438.55 572.35 452.2 C 572.35 465.84999999999997 563.21 473.77 545.73 473.77 Z" stroke-linecap="round" />
</g>
<g transform="matrix(1 0 0 1 512.02 476.49)"  >
<path style="stroke: none; stroke-width: 1; stroke-dasharray: none; stroke-linecap: butt; stroke-dashoffset: 0; stroke-linejoin: miter; stroke-miterlimit: 4; fill: rgb(255,255,255); fill-rule: nonzero; opacity: 1;" vector-effect="non-scaling-stroke"  transform=" translate(-657.41, -466.67)" d="M 664.1 418.9 L 650.58 418.9 L 607.3100000000001 514.4499999999999 L 621.37 514.4499999999999 L 629.04 497.0199999999999 L 631.88 490.55999999999995 L 636.67 479.63999999999993 L 636.66 479.63999999999993 L 641.8 467.9599999999999 L 643.43 464.2399999999999 L 657.27 432.8099999999999 L 671.24 464.5599999999999 L 677.88 479.6399999999999 L 677.87 479.6399999999999 L 682.66 490.5599999999999 L 685.51 497.01999999999987 L 693.18 514.4499999999998 L 707.51 514.4499999999998 L 664.11 418.8999999999998 Z" stroke-linecap="round" />
</g>
<g transform="matrix(1 0 0 1 615.24 478.65)"  >
<path style="stroke: none; stroke-width: 1; stroke-dasharray: none; stroke-linecap: butt; stroke-dashoffset: 0; stroke-linejoin: miter; stroke-miterlimit: 4; fill: rgb(255,255,255); fill-rule: nonzero; opacity: 1;" vector-effect="non-scaling-stroke"  transform=" translate(-756.32, -466.68)" d="M 716.8 418.9 L 716.8 430.77 L 749.55 430.77 L 749.55 514.45 L 763.0699999999999 514.45 L 763.0699999999999 430.77000000000004 L 795.8399999999999 430.77000000000004 L 795.8399999999999 418.90000000000003 L 716.8 418.90000000000003 Z" stroke-linecap="round" />
</g>
<g transform="matrix(1 0 0 1 704.72 494.62)"  >
<path style="stroke: none; stroke-width: 1; stroke-dasharray: none; stroke-linecap: butt; stroke-dashoffset: 0; stroke-linejoin: miter; stroke-miterlimit: 4; fill: rgb(255,255,255); fill-rule: nonzero; opacity: 1;" vector-effect="non-scaling-stroke"  transform=" translate(-220.65, -581.81)" d="M 217.93 556.13 L 217.93 607.48 L 223.37 607.48 L 223.37 556.13 L 217.93 556.13 Z" stroke-linecap="round" />
</g>
<g transform="matrix(1 0 0 1 754.72 496.78)"  >
<path style="stroke: none; stroke-width: 1; stroke-dasharray: none; stroke-linecap: butt; stroke-dashoffset: 0; stroke-linejoin: miter; stroke-miterlimit: 4; fill: rgb(255,255,255); fill-rule: nonzero; opacity: 1;" vector-effect="non-scaling-stroke"  transform=" translate(-320.24, -581.81)" d="M 336.34 556.13 L 336.34 597.8 L 303.25 556.13 L 298.78 556.13 L 298.78 607.48 L 304.2 607.48 L 304.2 565.8100000000001 L 337.21999999999997 607.48 L 341.69 607.48 L 341.69 556.13 L 336.34 556.13 Z" stroke-linecap="round" />
</g>
<g transform="matrix(1 0 0 1 827.33 496.78)"  >
<path style="stroke: none; stroke-width: 1; stroke-dasharray: none; stroke-linecap: butt; stroke-dashoffset: 0; stroke-linejoin: miter; stroke-miterlimit: 4; fill: rgb(255,255,255); fill-rule: nonzero; opacity: 1;" vector-effect="non-scaling-stroke"  transform=" translate(-433.8, -581.81)" d="M 453.73 556.13 L 433.92 600.74 L 414.26 556.13 L 408.38 556.13 L 431.13 607.48 L 436.49 607.48 L 459.22 556.13 L 453.72 556.13 Z" stroke-linecap="round" />
</g>
<g transform="matrix(1 0 0 1 889.6 496.78)"  >
<path style="stroke: none; stroke-width: 1; stroke-dasharray: none; stroke-linecap: butt; stroke-dashoffset: 0; stroke-linejoin: miter; stroke-miterlimit: 4; fill: rgb(255,255,255); fill-rule: nonzero; opacity: 1;" vector-effect="non-scaling-stroke"  transform=" translate(-543.49, -581.81)" d="M 525.33 556.13 L 525.33 560.83 L 560.5500000000001 560.83 L 560.5500000000001 556.13 L 525.33 556.13 Z M 525.33 579.1 L 525.33 583.73 L 530.7700000000001 583.73 C 530.7700000000001 583.73 557.32 583.72 557.32 583.72 L 557.32 579.11 L 525.33 579.11 Z M 525.33 602.8000000000001 L 525.33 607.4900000000001 L 561.6500000000001 607.4900000000001 L 561.6500000000001 602.8000000000001 L 525.33 602.8000000000001 Z" stroke-linecap="round" />
</g>
<g transform="matrix(1 0 0 1 943.87 496.78)"  >
<path style="stroke: none; stroke-width: 1; stroke-dasharray: none; stroke-linecap: butt; stroke-dashoffset: 0; stroke-linejoin: miter; stroke-miterlimit: 4; fill: rgb(255,255,255); fill-rule: nonzero; opacity: 1;" vector-effect="non-scaling-stroke"  transform=" translate(-647.34, -581.81)" d="M 634.8 569.64 C 634.8 564.5 638.99 560.3199999999999 648.38 560.3199999999999 C 652.92 560.3199999999999 658.06 561.7199999999999 662.46 564.5699999999999 L 664.3000000000001 560.2499999999999 C 660.2 557.3799999999999 654.1800000000001 555.6899999999999 648.3900000000001 555.6899999999999 C 635.3300000000002 555.6899999999999 629.4700000000001 562.2299999999999 629.4700000000001 569.78 C 629.4700000000001 588.78 661.0800000000002 580.12 661.0800000000002 594.1999999999999 C 661.0800000000002 599.27 656.9100000000002 603.3 647.3000000000002 603.3 C 640.5600000000002 603.3 634.0200000000002 600.67 630.3600000000001 597.0699999999999 L 628.2300000000001 601.26 C 632.0400000000001 605.21 639.6000000000001 607.93 647.3000000000002 607.93 C 660.4400000000002 607.93 666.4500000000002 601.4799999999999 666.4500000000002 593.91 C 666.4500000000002 575.2099999999999 634.8300000000002 583.7099999999999 634.8300000000002 569.64 Z" stroke-linecap="round" />
</g>
<g transform="matrix(1 0 0 1 997.98 496.78)"  >
<path style="stroke: none; stroke-width: 1; stroke-dasharray: none; stroke-linecap: butt; stroke-dashoffset: 0; stroke-linejoin: miter; stroke-miterlimit: 4; fill: rgb(255,255,255); fill-rule: nonzero; opacity: 1;" vector-effect="non-scaling-stroke"  transform=" translate(-748.88, -581.81)" d="M 728.12 556.13 L 728.12 560.83 L 746.16 560.83 L 746.16 607.48 L 751.6 607.48 L 751.6 560.83 L 769.64 560.83 L 769.64 556.13 L 728.12 556.13 Z" stroke-linecap="round" />
</g>
</svg>