<svg width="1512" height="982" viewBox="0 0 1512 982" fill="none" xmlns="http://www.w3.org/2000/svg">

<rect width="13" height="78" transform="matrix(-1 0 0 1 1343.5 218)" fill="#32334D"/>
<line y1="-0.5" x2="137" y2="-0.5" transform="matrix(0 1 1 0 1337.5 189)" stroke="#32334D"/>
<rect width="13" height="78" transform="matrix(-1 0 0 1 1246.5 170)" fill="#32334D"/>
<line y1="-0.5" x2="137" y2="-0.5" transform="matrix(0 1 1 0 1240.5 141)" stroke="#32334D"/>
<rect width="13" height="44" transform="matrix(-1 0 0 1 1440.5 85)" fill="#32334D"/>
<line y1="-0.5" x2="110" y2="-0.5" transform="matrix(0 1 1 0 1434.5 64)" stroke="#32334D"/>
<rect width="13" height="44" transform="matrix(-1 0 0 1 1274.5 124)" fill="#32334D"/>
<line y1="-0.5" x2="110" y2="-0.5" transform="matrix(0 1 1 0 1268.5 74)" stroke="#32334D"/>
<rect width="13" height="49" transform="matrix(-1 0 0 1 1371.5 170)" fill="#32334D"/>
<line y1="-0.5" x2="110" y2="-0.5" transform="matrix(0 1 1 0 1365.5 139)" stroke="#32334D"/>
<rect width="13" height="49" transform="matrix(-1 0 0 1 1506.5 309)" fill="#32334D"/>
<line y1="-0.5" x2="110" y2="-0.5" transform="matrix(0 1 1 0 1500.5 278)" stroke="#32334D"/>
<rect width="13" height="49" transform="matrix(-1 0 0 1 1116.5 412)" fill="#32334D"/>
<line y1="-0.5" x2="110" y2="-0.5" transform="matrix(0 1 1 0 1110.5 381)" stroke="#32334D"/>
<rect width="13" height="49" transform="matrix(-1 0 0 1 1201.5 347)" fill="#32334D"/>
<line y1="-0.5" x2="110" y2="-0.5" transform="matrix(0 1 1 0 1195.5 316)" stroke="#32334D"/>
<rect width="13" height="49" transform="matrix(-1 0 0 1 997.5 598)" fill="#32334D"/>
<line y1="-0.5" x2="110" y2="-0.5" transform="matrix(0 1 1 0 991.5 567)" stroke="#32334D"/>
<rect width="13" height="22" transform="matrix(-1 0 0 1 1405.5 69)" fill="#32334D"/>
<line y1="-0.5" x2="61" y2="-0.5" transform="matrix(0 1 1 0 1399.5 46)" stroke="#32334D"/>
<rect width="13" height="22" transform="matrix(-1 0 0 1 1022.5 567)" fill="#32334D"/>
<line y1="-0.5" x2="61" y2="-0.5" transform="matrix(0 1 1 0 1016.5 544)" stroke="#32334D"/>
<rect width="13" height="22" transform="matrix(-1 0 0 1 1405.5 69)" fill="#32334D"/>
<line y1="-0.5" x2="61" y2="-0.5" transform="matrix(0 1 1 0 1399.5 46)" stroke="#32334D"/>
<rect width="13" height="22" transform="matrix(-1 0 0 1 1477.5 228)" fill="#32334D"/>
<line y1="-0.5" x2="61" y2="-0.5" transform="matrix(0 1 1 0 1471.5 205)" stroke="#32334D"/>
<rect width="13" height="22" transform="matrix(-1 0 0 1 1315.5 202)" fill="#32334D"/>
<line y1="-0.5" x2="61" y2="-0.5" transform="matrix(0 1 1 0 1309.5 194)" stroke="#32334D"/>
<rect width="13" height="30" transform="matrix(-1 0 0 1 1302.5 155)" fill="#32334D"/>
<line y1="-0.5" x2="61" y2="-0.5" transform="matrix(0 1 1 0 1296.5 148)" stroke="#32334D"/>
<rect width="13" height="30" transform="matrix(-1 0 0 1 1147.5 421)" fill="#32334D"/>
<line y1="-0.5" x2="61" y2="-0.5" transform="matrix(0 1 1 0 1141.5 414)" stroke="#32334D"/>
<rect width="13" height="30" transform="matrix(-1 0 0 1 1040.5 502)" fill="#32334D"/>
<line y1="-0.5" x2="61" y2="-0.5" transform="matrix(0 1 1 0 1034.5 495)" stroke="#32334D"/>
<rect width="16" height="8" transform="matrix(-1 0 0 1 1387.5 111)" fill="#32334D"/>
<line y1="-0.5" x2="61" y2="-0.5" transform="matrix(0 1 1 0 1379.5 76)" stroke="#32334D"/>
<rect width="16" height="8" transform="matrix(-1 0 0 1 1493.5 279)" fill="#32334D"/>
<line y1="-0.5" x2="61" y2="-0.5" transform="matrix(0 1 1 0 1485.5 244)" stroke="#32334D"/>
<rect width="16" height="8" transform="matrix(-1 0 0 1 1225.5 301)" fill="#32334D"/>
<line y1="-0.5" x2="61" y2="-0.5" transform="matrix(0 1 1 0 1217.5 266)" stroke="#32334D"/>
<rect width="16" height="8" transform="matrix(-1 0 0 1 1093.5 479)" fill="#32334D"/>
<line y1="-0.5" x2="61" y2="-0.5" transform="matrix(0 1 1 0 1085.5 444)" stroke="#32334D"/>
<rect width="17" height="15" transform="matrix(-1 0 0 1 1464.5 176)" fill="#32334D"/>
<line y1="-0.5" x2="61" y2="-0.5" transform="matrix(0 1 1 0 1456.5 148)" stroke="#32334D"/>
<rect width="17" height="15" transform="matrix(-1 0 0 1 1067.5 492)" fill="#32334D"/>
<line y1="-0.5" x2="61" y2="-0.5" transform="matrix(0 1 1 0 1059.5 464)" stroke="#32334D"/>
<rect width="17" height="15" transform="matrix(-1 0 0 1 1170.5 393)" fill="#32334D"/>
<line y1="-0.5" x2="61" y2="-0.5" transform="matrix(0 1 1 0 1162.5 365)" stroke="#32334D"/>
<rect x="172" y="214" width="13" height="78" fill="#32334D"/>
<line x1="178.5" y1="185" x2="178.5" y2="322" stroke="#32334D"/>
<rect x="269" y="166" width="13" height="78" fill="#32334D"/>
<line x1="275.5" y1="137" x2="275.5" y2="274" stroke="#32334D"/>
<rect x="75" y="81" width="13" height="44" fill="#32334D"/>
<line x1="81.5" y1="60" x2="81.5" y2="170" stroke="#32334D"/>
<rect x="241" y="120" width="13" height="44" fill="#32334D"/>
<line x1="247.5" y1="70" x2="247.5" y2="180" stroke="#32334D"/>
<rect x="144" y="166" width="13" height="49" fill="#32334D"/>
<line x1="150.5" y1="135" x2="150.5" y2="245" stroke="#32334D"/>
<rect x="9" y="305" width="13" height="49" fill="#32334D"/>
<line x1="15.5" y1="274" x2="15.5" y2="384" stroke="#32334D"/>
<rect x="399" y="408" width="13" height="49" fill="#32334D"/>
<line x1="405.5" y1="377" x2="405.5" y2="487" stroke="#32334D"/>
<rect x="314" y="343" width="13" height="49" fill="#32334D"/>
<line x1="320.5" y1="312" x2="320.5" y2="422" stroke="#32334D"/>
<rect x="518" y="594" width="13" height="49" fill="#32334D"/>
<line x1="524.5" y1="563" x2="524.5" y2="673" stroke="#32334D"/>
<rect x="110" y="65" width="13" height="22" fill="#32334D"/>
<line x1="116.5" y1="42" x2="116.5" y2="103" stroke="#32334D"/>
<rect x="493" y="563" width="13" height="22" fill="#32334D"/>
<line x1="499.5" y1="540" x2="499.5" y2="601" stroke="#32334D"/>
<rect x="110" y="65" width="13" height="22" fill="#32334D"/>
<line x1="116.5" y1="42" x2="116.5" y2="103" stroke="#32334D"/>
<rect x="38" y="224" width="13" height="22" fill="#32334D"/>
<line x1="44.5" y1="201" x2="44.5" y2="262" stroke="#32334D"/>
<rect x="200" y="198" width="13" height="22" fill="#32334D"/>
<line x1="206.5" y1="190" x2="206.5" y2="251" stroke="#32334D"/>
<rect x="213" y="151" width="13" height="30" fill="#32334D"/>
<line x1="219.5" y1="144" x2="219.5" y2="205" stroke="#32334D"/>
<rect x="368" y="417" width="13" height="30" fill="#32334D"/>
<line x1="374.5" y1="410" x2="374.5" y2="471" stroke="#32334D"/>
<rect x="475" y="498" width="13" height="30" fill="#32334D"/>
<line x1="481.5" y1="491" x2="481.5" y2="552" stroke="#32334D"/>
<rect x="128" y="107" width="16" height="8" fill="#32334D"/>
<line x1="136.5" y1="72" x2="136.5" y2="133" stroke="#32334D"/>
<rect x="22" y="275" width="16" height="8" fill="#32334D"/>
<line x1="30.5" y1="240" x2="30.5" y2="301" stroke="#32334D"/>
<rect x="290" y="297" width="16" height="8" fill="#32334D"/>
<line x1="298.5" y1="262" x2="298.5" y2="323" stroke="#32334D"/>
<rect x="422" y="475" width="16" height="8" fill="#32334D"/>
<line x1="430.5" y1="440" x2="430.5" y2="501" stroke="#32334D"/>
<rect x="51" y="172" width="17" height="15" fill="#32334D"/>
<line x1="59.5" y1="144" x2="59.5" y2="205" stroke="#32334D"/>
<rect x="448" y="488" width="17" height="15" fill="#32334D"/>
<line x1="456.5" y1="460" x2="456.5" y2="521" stroke="#32334D"/>
<rect x="345" y="389" width="17" height="15" fill="#32334D"/>
<line x1="353.5" y1="361" x2="353.5" y2="422" stroke="#32334D"/>
</svg>
