<?xml version="1.0" encoding="UTF-8"?>
<svg xmlns="http://www.w3.org/2000/svg" width="82" height="89" viewBox="0 0 82 89" fill="none">
  <g clip-path="url(#clip0_892_2522)">
    <path d="M70.2908 59.606L68.5177 59.0594C68.5177 58.9661 68.5577 58.8861 68.5577 58.7795C68.5577 54.8066 62.9584 51.367 53.8261 49.6072C56.9591 46.8609 58.7722 42.9013 58.7722 38.7151V28.7563L61.0519 16.3844C61.7318 12.6782 60.7453 8.89196 58.3322 5.99896C55.9192 3.10596 52.3729 1.43949 48.6 1.43949H33.8951C32.9752 1.43949 32.0553 1.37283 31.1354 1.25285L21.5232 -0.0136719L23.2297 5.33237C23.5096 6.18561 23.8563 6.99884 24.2562 7.77209C23.7363 8.33202 22.1898 10.2118 21.1899 13.7447C20.4967 16.1711 20.4967 18.8908 21.1899 21.6105L22.5764 27.1432V38.7018C22.5764 42.888 24.3762 46.8475 27.5225 49.5939C18.4036 51.367 12.8042 54.8066 12.8042 58.7661C12.8042 58.8595 12.8042 58.9528 12.8175 59.0461L11.0444 59.5927C4.44519 61.6725 0.019043 67.7251 0.019043 74.631V87.4961C0.019043 87.8694 0.312342 88.1627 0.685632 88.1627H80.6763C81.0496 88.1627 81.3429 87.8694 81.3429 87.4961V74.631C81.3429 67.7251 76.9034 61.6858 70.3042 59.5927L70.2908 59.606ZM23.1363 1.3595L30.9888 2.38605C31.9487 2.50603 32.9219 2.57269 33.8951 2.57269H48.6C52.0263 2.57269 55.2659 4.07918 57.4523 6.71888C59.6521 9.35857 60.5453 12.7982 59.9321 16.1844L58.0123 26.6099L53.4661 14.638H37.508C31.4554 14.638 26.136 10.7584 24.2962 4.98574L23.1363 1.34617V1.3595ZM22.2698 14.078C23.0164 11.465 24.0829 9.82518 24.6962 9.01194C26.016 11.2783 28.2424 12.8915 29.189 13.5181L23.2963 25.4634L22.2698 21.3572C21.6432 18.8241 21.6432 16.3044 22.2698 14.078ZM23.6829 38.7285V27.2365L30.2555 13.918C32.4153 15.1179 34.895 15.7845 37.508 15.7845H52.6796L57.6257 28.823V38.7285C57.6257 42.6214 55.9325 46.3143 52.9729 48.8606L48.2934 52.8735C47.2935 53.7401 46.1737 54.4066 44.9605 54.8733C42.2141 55.9531 39.0678 55.9531 36.3348 54.8733C35.1483 54.42 34.0284 53.7401 33.0152 52.8735L28.3224 48.8606C25.3628 46.3143 23.6696 42.6347 23.6696 38.7285H23.6829ZM30.8421 52.5002L32.2819 53.7401C33.3885 54.6999 34.6283 55.4332 35.9215 55.9398C37.4147 56.5264 39.0278 56.8197 40.641 56.8197C42.2541 56.8197 43.8673 56.5264 45.3738 55.9398C46.6936 55.4332 47.9201 54.6866 49.0267 53.7401L50.4665 52.5002V56.8197C50.4665 58.6328 49.5733 60.3526 48.0668 61.3925C45.8804 62.9123 43.3207 63.7256 40.641 63.7256C37.9613 63.7256 35.4016 62.9256 33.2285 61.3925C31.7353 60.3393 30.8288 58.6328 30.8288 56.8197V52.5002H30.8421ZM39.9877 86.8562H17.7503V81.4568C17.7503 81.0835 17.457 80.7902 17.0837 80.7902C16.7104 80.7902 16.4171 81.0835 16.4171 81.4568V86.8562H1.33889V74.6576C1.33889 68.3384 5.39175 62.8057 11.431 60.8992L13.0975 60.3926C13.3508 61.0459 13.7641 61.6725 14.324 62.2857C14.324 62.2857 14.3374 62.2991 14.3507 62.3124C14.524 62.5124 14.724 62.699 14.9373 62.8857C14.964 62.9123 15.004 62.939 15.0306 62.9656C15.2173 63.139 15.4306 63.2989 15.6439 63.4589C15.6972 63.4989 15.7372 63.5256 15.7905 63.5656C15.9905 63.7122 16.2172 63.8722 16.4438 64.0189C16.5105 64.0589 16.5771 64.0988 16.6304 64.1388C16.8571 64.2855 17.0837 64.4188 17.3237 64.5521C17.4037 64.5921 17.4703 64.6321 17.5503 64.6854C17.7903 64.8188 18.0436 64.9521 18.2969 65.0721C18.3769 65.1121 18.4702 65.1521 18.5635 65.2054C18.8169 65.3254 19.0835 65.4454 19.3635 65.5653C19.4568 65.6053 19.5501 65.6453 19.6568 65.6853C19.9367 65.8053 20.23 65.9253 20.5233 66.032C20.63 66.0719 20.7233 66.1119 20.8299 66.1519C21.1366 66.2719 21.4565 66.3786 21.7765 66.4852C21.8832 66.5252 21.9765 66.5519 22.0831 66.5919C22.4164 66.6985 22.7764 66.8052 23.123 66.9118C23.2163 66.9385 23.3097 66.9652 23.403 66.9918C23.7896 67.0985 24.1896 67.2185 24.5895 67.3118C24.6562 67.3251 24.7228 67.3518 24.7895 67.3651C25.696 67.5918 26.6559 67.8051 27.6558 68.0051V78.2572C26.9759 78.5238 26.496 79.1771 26.496 79.9503V80.6302C26.496 81.6435 27.3092 82.4567 28.3224 82.4567C29.3356 82.4567 30.1489 81.6435 30.1489 80.6302V79.9503C30.1489 79.1771 29.6556 78.5105 28.9757 78.2439V68.2317C32.162 68.7783 35.6149 69.0983 39.2811 69.1649C39.5211 69.1649 39.7877 69.1649 40.041 69.1649V86.8295L39.9877 86.8562ZM28.2557 62.459C27.8825 62.459 27.5892 62.7523 27.5892 63.1256V64.2188C27.2159 63.9922 26.9492 63.5922 26.9492 63.1256C26.9492 62.4057 27.5358 61.8324 28.2557 61.8324C28.9757 61.8324 29.5623 62.419 29.5623 63.1256C29.5623 63.5922 29.2956 63.9922 28.9223 64.2188V63.1256C28.9223 62.7523 28.629 62.459 28.2557 62.459ZM28.7624 79.9503V80.6302C28.7624 80.8969 28.5357 81.1235 28.2691 81.1235C28.0024 81.1235 27.7758 80.8969 27.7758 80.6302V79.9503C27.7758 79.6837 28.0024 79.4571 28.2824 79.4571C28.5624 79.4571 28.7757 79.6837 28.7757 79.9503H28.7624ZM40.281 67.8584C39.9477 67.8717 39.6011 67.8584 39.2678 67.8584C35.5749 67.7917 32.1086 67.4585 28.9223 66.8985V65.6853C30.0555 65.392 30.8954 64.3655 30.8954 63.139C30.8954 61.6858 29.7089 60.5126 28.2557 60.5126C26.8026 60.5126 25.6161 61.6858 25.6161 63.139C25.6161 64.3655 26.456 65.392 27.5892 65.6853V66.6719C19.9234 65.1387 14.7907 62.3924 14.1774 59.3927C14.1374 59.2327 14.1107 59.0328 14.1107 58.8195C14.1107 55.5398 19.7901 52.0069 28.3757 50.4071L29.5089 51.3803V56.833C29.5089 59.0861 30.6155 61.2059 32.4686 62.499C34.8816 64.1788 37.708 65.0721 40.6543 65.0721C43.6006 65.0721 46.4403 64.1788 48.8533 62.499C50.7065 61.2059 51.813 59.0861 51.813 56.833V51.367L52.9329 50.4071C61.5185 52.0069 67.2112 55.5398 67.2112 58.8195C67.2112 59.0194 67.1845 59.2061 67.1312 59.4061C67.1312 59.4061 67.1312 59.4194 67.1312 59.4327C66.518 62.3657 61.3052 65.1521 53.7328 66.6585V65.6853C54.866 65.392 55.7059 64.3655 55.7059 63.139C55.7059 61.6858 54.5194 60.5126 53.0662 60.5126C51.613 60.5126 50.4398 61.6858 50.4398 63.139C50.4398 64.3655 51.2797 65.3787 52.3996 65.6853V66.9118C49.1733 67.4718 45.6937 67.7917 42.0541 67.8584C41.6009 67.8584 41.1209 67.8317 40.6676 67.8584H40.3077H40.281ZM53.0395 62.459C52.6662 62.459 52.3729 62.7523 52.3729 63.1256V64.2188C51.9996 63.9922 51.7463 63.5922 51.7463 63.1256C51.7463 62.4057 52.3329 61.8324 53.0395 61.8324C53.7461 61.8324 54.346 62.419 54.346 63.1256C54.346 63.5922 54.0794 63.9922 53.7061 64.2188V63.1256C53.7061 62.7523 53.4128 62.459 53.0395 62.459ZM53.5328 79.9503V80.6302C53.5328 80.8969 53.3062 81.1235 53.0395 81.1235H53.0262C52.7596 81.1235 52.5329 80.8969 52.5329 80.6302V79.9503C52.5329 79.6837 52.7596 79.4571 53.0395 79.4571C53.3195 79.4571 53.5328 79.6837 53.5328 79.9503ZM79.9697 86.8562H64.8915V81.4568C64.8915 81.0835 64.5982 80.7902 64.2249 80.7902C63.8516 80.7902 63.5583 81.0835 63.5583 81.4568V86.8562H41.3076V69.1916C41.5609 69.1916 41.8142 69.1916 42.0541 69.1916C45.6804 69.1249 49.1333 68.805 52.3729 68.2584V78.2705C51.693 78.5372 51.1997 79.1904 51.1997 79.977V80.6569C51.1997 81.6701 52.013 82.4834 53.0262 82.4834H53.0395C54.0527 82.4834 54.866 81.6701 54.866 80.6569V79.977C54.866 79.2038 54.386 78.5505 53.7061 78.2839V68.0317C53.8128 68.0051 53.9194 67.9917 54.0261 67.9651C54.1327 67.9384 54.2394 67.9251 54.346 67.8984C54.6927 67.8317 55.026 67.7518 55.3459 67.6718C55.5192 67.6318 55.6926 67.5918 55.8659 67.5518C56.1858 67.4718 56.4925 67.3918 56.7991 67.3118C56.9724 67.2718 57.1324 67.2318 57.3057 67.1785C57.6123 67.0985 57.919 67.0052 58.2123 66.9118C58.3589 66.8719 58.5189 66.8185 58.6655 66.7785C58.9722 66.6852 59.2655 66.5919 59.5588 66.4852C59.6921 66.4452 59.8121 66.4052 59.9454 66.3519C60.252 66.2453 60.5453 66.1386 60.8253 66.032C60.9319 65.992 61.0253 65.952 61.1186 65.912C61.4252 65.792 61.7185 65.672 61.9985 65.5387C62.0651 65.512 62.1451 65.472 62.2118 65.4454C62.5184 65.312 62.7984 65.1654 63.0917 65.0321C63.1317 65.0054 63.1717 64.9921 63.225 64.9654C63.5316 64.8054 63.8116 64.6588 64.0916 64.4988C64.1049 64.4988 64.1182 64.4855 64.1316 64.4721C66.238 63.2589 67.6512 61.8591 68.2111 60.3793L69.8642 60.8859C75.9035 62.7923 79.9697 68.325 79.9697 74.6443V86.8429V86.8562Z" fill="#3959E5"></path>
  </g>
  <defs>
    <clipPath id="clip0_892_2522">
      <rect width="81.3354" height="88.1764" fill="white"></rect>
    </clipPath>
  </defs>
</svg>
