<?xml version="1.0" encoding="UTF-8"?>
<svg xmlns="http://www.w3.org/2000/svg" width="998.305" height="251.976" version="1.1" viewBox="0 0 998.305 251.976">
  <!-- Generator: Adobe Illustrator 29.3.1, SVG Export Plug-In . SVG Version: 2.1.0 Build 151)  -->
  <defs>
    <style>
      .st0 {
        fill: #020000;
      }
    </style>
  </defs>
  <g id="Ent_Logo_India">
    <g>
      <rect class="st0" x="760.24" width="11.259" height="40.127"/>
      <polygon class="st0" points="812.983 20.635 798.971 0 789.455 0 789.455 40.127 800.714 40.127 800.714 19.526 814.808 40.019 814.882 40.127 824.242 40.127 824.242 0 812.983 0 812.983 20.635"/>
      <path class="st0" d="M868.232,2.4c-2.997-1.592-6.594-2.4-10.691-2.4h-15.343v40.127h15.497c4.047,0,7.608-.807,10.586-2.4,2.983-1.596,5.322-3.921,6.951-6.912,1.625-2.984,2.449-6.602,2.449-10.752s-.827-7.769-2.459-10.752c-1.634-2.989-3.986-5.314-6.99-6.911ZM853.457,9.633h3.542c2.019,0,3.745.312,5.133.927,1.362.604,2.414,1.664,3.126,3.149.722,1.505,1.088,3.644,1.088,6.354s-.359,4.849-1.069,6.356c-.698,1.485-1.725,2.544-3.05,3.148-1.348.614-3.002.926-4.918.926h-3.852V9.633Z"/>
      <rect class="st0" x="895.483" width="11.259" height="40.127"/>
      <path class="st0" d="M936.532,0l-13.245,40.127h12.141l2.29-7.585h12.695l2.29,7.585h12.141l-13.245-40.127h-15.066ZM940.298,23.993l3.768-12.478,3.767,12.478h-7.534Z"/>
    </g>
  </g>
  <g id="Ent_Logo_India_Black">
    <g>
      <path class="st0" d="M238.876,192.376c-4.903,0-7.714-2.997-7.714-8.223v-97.704l16.891-1.88,1.453-14.885h-18.696v-21.57l-18.679.862-5.784,20.112-13.628.636-.526,14.797,11.909,1.892v97.895c0,21.688,15.688,24.926,25.038,24.926,11.734,0,19.269-2.82,21.299-3.683l.597-.255-1.233-12.92h-10.928Z"/>
      <path class="st0" d="M319.272,73.714h-.331c-11.754,0-22.434,3.125-31.01,9.057v-.628l-2.269-8.37-32.138,4.455v12.888l11.258,1.101v100.859l-9.507,2.192-.538,12.442h46.892l.897-12.441-10.685-2.211v-97.565c2.387-1.587,5.317-2.667,9.125-3.362l1.7,15.066,18.472.686,3.269-29.721-5.136-4.45Z"/>
      <path class="st0" d="M913.779,82.742l-2.909-9.926-35.877,4.103v11.501l12.197,1.103v95.029c-1.511,2.172-2.923,3.923-4.31,5.339-2.329.953-5.156,1.436-8.411,1.436-8.714,0-12.95-5.415-12.95-16.555v-92.03l-2.903-9.927-35.527,4.104v11.498l11.843,1.103v88.395c0,9.431,3.06,31.367,31.41,31.367,11.126,0,18.005-4.581,23.64-9.781l2.433,8.209h30.613l1.429-12.756-10.679-2.059v-110.153Z"/>
      <path class="st0" d="M186.254,102.721c0-18.574-11.063-30.112-28.871-30.112-9.901,0-18.377,3.498-25.848,10.68v-2.093l-2.516-7.426-31.112,4.454v12.889l11.844,1.102v100.686l-10.093,2.037-.538,12.773h47.01l.896-12.763-10.686-2.053v-94.365c1.175-1.615,2.428-3.254,3.764-4.366,2.407-.752,4.509-1.321,7.427-1.321,8.277,0,12.132,4.86,12.132,15.296v99.572h36.667l.714-12.767-10.789-2.051v-90.172Z"/>
      <polygon class="st0" points="72.571 167.42 69.91 192.267 43.56 192.267 43.56 117.826 54.109 117.826 57.08 130.552 71.138 130.552 71.138 91.56 56.922 91.209 54.105 103.637 43.56 103.637 43.56 32.483 69.705 32.483 70.799 55.239 90.459 55.756 92.756 17.671 .883 17.671 0 32.216 14.514 34.106 14.514 190.513 1.646 192.548 .946 207.71 94.61 207.71 93.139 168.104 72.571 167.42"/>
      <path class="st0" d="M993.168,73.714h-.331c-11.751,0-22.432,3.125-31.012,9.057v-.628l-2.268-8.37-32.136,4.455v12.888l11.257,1.101v100.859l-9.509,2.192-.538,12.442h46.893l.896-12.441-10.686-2.211v-97.564c2.39-1.587,5.319-2.668,9.126-3.363l1.699,15.066,18.475.686,3.269-29.721-5.137-4.45Z"/>
      <path class="st0" d="M561.925,73.714h-.331c-11.753,0-22.432,3.125-31.01,9.057v-.628l-2.27-8.37-32.136,4.455v12.888l11.259,1.101v100.859l-9.509,2.192-.538,12.442h46.893l.895-12.441-10.686-2.211v-97.564c2.39-1.587,5.321-2.668,9.13-3.363l1.697,15.066,18.475.686,3.267-29.721-5.137-4.45Z"/>
      <path class="st0" d="M734.483,102.721c0-18.574-11.062-30.112-28.871-30.112-9.899,0-18.376,3.498-25.849,10.68v-2.093l-2.513-7.426-31.112,4.454v12.889l11.845,1.102v100.686l-10.094,2.037-.536,12.773h47.008l.893-12.763-10.682-2.053v-94.365c1.171-1.613,2.421-3.249,3.763-4.365,2.409-.753,4.512-1.322,7.427-1.322,8.279,0,12.136,4.86,12.136,15.296v99.572h36.662l.715-12.767-10.792-2.051v-90.172Z"/>
      <path class="st0" d="M365.544,72.404c-14.361-.25-26.014,7.236-33.763,21.654-6.357,11.826-10.03,28.26-10.344,46.273-.715,41.012,16.167,68.871,42.007,69.324.28.004.558.007.837.007,12.196,0,23.677-4.679,32.407-13.227l.442-.433-4.655-10.336-.845.473c-7.8,4.377-13.961,6.11-21.214,5.983-14.326-.251-21.531-22.22-21.349-44.086l50.135.291,2.961-7.035.07-.328c.74-42.514-12.977-68.143-36.69-68.558ZM348.831,134.907c.243-9.071,2.653-32.864,7.621-43.388,3.589-2.353,5.465-2.753,7.99-2.708,8.055.141,12.873,16.094,13.589,44.945l-29.201,1.151Z"/>
      <path class="st0" d="M461.082,73.3c-13.746,0-21.308,6.93-25.012,11.186v-.991l-2.915-9.943-32.13,4.454v12.39l11.864,1.572v145.669l-9.993,2.033-.54,12.306h46.963l.898-12.297-10.702-2.05v-38.451c4.453,2.145,10.184,3.359,15.984,3.359,39.166,0,39.166-50.564,39.166-67.181,0-30-8.822-62.057-33.583-62.057ZM463.894,183.106c-3.625,1.753-7.485,2.571-12.113,2.571-4.983,0-9.003-.81-12.265-2.475v-84.676c1.448-2.214,3.209-4.238,4.473-5.628,2.873-.986,5.695-1.447,8.863-1.447,7.228,0,15.524,5.518,15.524,48.547,0,24.115-3.525,39.96-4.48,43.108Z"/>
      <path class="st0" d="M609.429,72.404c-14.4-.25-26.014,7.236-33.764,21.654-6.357,11.825-10.03,28.259-10.343,46.273-.715,41.012,16.167,68.871,42.007,69.324.28.004.559.007.837.007,12.197,0,23.676-4.679,32.406-13.227l.444-.433-4.656-10.336-.844.473c-7.8,4.377-13.92,6.105-21.215,5.983-14.326-.251-21.532-22.22-21.349-44.086l50.134.291,2.963-7.035.068-.328c.74-42.514-12.975-68.143-36.688-68.558ZM592.717,134.907c.242-9.07,2.649-32.858,7.621-43.388,3.588-2.352,5.44-2.752,7.99-2.708,8.057.141,12.876,16.091,13.589,44.945l-29.199,1.151Z"/>
      <path class="st0" d="M787.616,72.404c-14.378-.25-26.014,7.236-33.764,21.654-6.357,11.825-10.03,28.259-10.343,46.273-.715,41.012,16.167,68.871,42.007,69.324.28.004.559.007.837.007,12.197,0,23.676-4.679,32.406-13.227l.444-.433-4.656-10.336-.844.473c-7.802,4.376-13.92,6.103-21.215,5.983-14.326-.251-21.532-22.22-21.349-44.086l50.134.291,2.963-7.035.068-.328c.74-42.514-12.975-68.143-36.688-68.558ZM770.904,134.907c.242-9.071,2.649-32.863,7.621-43.389,3.587-2.354,5.459-2.759,7.99-2.707,11.154.195,13.229,30.804,13.589,44.945l-29.199,1.151Z"/>
      <path class="st0" d="M984.705,194.864c-3.755,0-6.696,2.941-6.696,6.696s2.941,6.693,6.696,6.693,6.695-2.94,6.695-6.693-2.941-6.696-6.695-6.696ZM984.705,196.673c2.737,0,4.801,2.101,4.801,4.887,0,1.406-.528,2.634-1.402,3.509l-1.978-2.957c1.073-.295,1.658-1.052,1.658-2.161,0-1.475-.867-2.224-2.578-2.224h-2.993v7.667h1.347v-3.204h1.136l2.027,3.204h.99c-.814.652-1.843,1.05-3.008,1.05-2.737,0-4.801-2.1-4.801-4.884s2.064-4.887,4.801-4.887ZM986.434,199.95c0,.956-.765,1.027-1.931,1.027h-.944v-2.038h1.397c1.324,0,1.478.577,1.478,1.011Z"/>
    </g>
  </g>
</svg>